<?xml version="1.0" encoding="UTF-8" standalone="no"?>
<svg width="256px" height="256px" viewBox="0 0 256 256" version="1.1" xmlns="http://www.w3.org/2000/svg" xmlns:xlink="http://www.w3.org/1999/xlink" xmlns:sketch="http://www.bohemiancoding.com/sketch/ns">
    <!-- Generator: Sketch 3.2.2 (9983) - http://www.bohemiancoding.com/sketch -->
    <title>passion</title>
    <desc>Created with Sketch.</desc>
    <defs></defs>
    <g id="Page-1" stroke="none" stroke-width="1" fill="none" fill-rule="evenodd" sketch:type="MSPage">
        <g id="passion" sketch:type="MSArtboardGroup" fill="#F15A23">
            <path d="M128,256 C198.692448,256 256,198.692448 256,128 C256,57.307552 198.692448,0 128,0 C57.307552,0 0,57.307552 0,128 C0,198.692448 57.307552,256 128,256 Z M156.266667,79 C145,79 134.666667,84.2894661 128,92.9936508 C121.333333,84.2894661 111,79 99.7333333,79 C80.0333333,79 64,95.169697 64,115.055411 C64,124.395671 67.5333333,133.267244 73.9666667,140.029726 L124.366667,191.150072 L128,194.832612 L131.633333,191.150072 L181.066667,141.000577 C188.066667,134.204618 192,124.964791 192,115.055411 C192,95.169697 175.966667,79 156.266667,79 Z" id="Oval-1" sketch:type="MSShapeGroup"></path>
        </g>
    </g>
</svg>