<?xml version="1.0" encoding="UTF-8" standalone="no"?>
<svg width="256px" height="256px" viewBox="0 0 256 256" version="1.1" xmlns="http://www.w3.org/2000/svg" xmlns:xlink="http://www.w3.org/1999/xlink" xmlns:sketch="http://www.bohemiancoding.com/sketch/ns">
    <!-- Generator: Sketch 3.2.2 (9983) - http://www.bohemiancoding.com/sketch -->
    <title>who</title>
    <desc>Created with Sketch.</desc>
    <defs></defs>
    <g id="Page-1" stroke="none" stroke-width="1" fill="none" fill-rule="evenodd" sketch:type="MSPage">
        <g id="who" sketch:type="MSArtboardGroup">
            <path d="M128,256 C198.692448,256 256,198.692448 256,128 C256,57.307552 198.692448,0 128,0 C57.307552,0 0,57.307552 0,128 C0,198.692448 57.307552,256 128,256 Z M201.927171,149.292024 C198.842316,148.312738 192.901114,148.011419 190.692205,145.37488 C189.587751,144.056611 190.197105,140.704439 190.311359,139.122516 C191.987082,139.273175 193.815145,139.009521 195.528953,138.783532 C197.090423,138.557543 198.613808,138.256225 200.099109,137.728917 C200.784633,137.465263 201.470156,137.201609 202.117595,136.824961 C203.602895,135.958669 202.917372,135.80801 202.155679,134.527405 C198.004454,127.634738 199.870601,118.896495 199.680178,111.325861 C199.52784,105.035832 197.852116,98.1431653 192.063252,94.6026699 C186.845657,91.4011581 179.114477,91.2881636 173.516036,93.5480543 C157.368151,99.9510778 166.88931,121.11872 161.367038,133.2468 C160.414922,135.280702 159.043875,135.996334 161.443207,137.201609 C162.776169,137.879576 164.223385,138.331554 165.670601,138.670538 C167.87951,139.197846 170.164588,139.499164 172.449666,139.574494 C172.830512,139.574494 172.56392,144.320265 172.449666,144.809908 C172.030735,146.655485 167.955679,147.182793 166.432294,147.597106 C164.870824,148.011419 162.281069,148.124414 161.519376,149.744002 C160.376837,152.154552 165.289755,151.551915 166.508463,151.777904 C170.43118,152.493536 173.896882,154.640432 176.943653,157.088647 C179.228731,158.934224 182.313586,161.420104 183.151448,164.433291 L213.695323,164.433291 C213.619154,156.862658 208.630067,151.476585 201.927171,149.292024 Z M85.388196,153.284498 C84.0933185,153.9248 82.5318486,154.715762 85.6928731,153.133838 C86.835412,152.568865 86.6069042,152.68186 85.9975501,152.983179 C88.5873051,151.777904 91.3674833,151.476585 94.1476615,151.212931 C95.2140312,151.099937 95.7091314,150.384305 94.9093541,149.367354 C93.3859688,147.446447 88.1302895,147.069798 85.9213808,146.203507 C84.5503341,145.676199 84.1694878,145.186556 84.0552339,143.679962 C84.0171492,143.001995 83.6363029,139.988807 84.1694878,139.499164 C84.5503341,139.122516 86.9496659,139.273175 87.4828508,139.197846 C89.6536748,138.934192 91.8625835,138.482214 93.9191537,137.691252 C94.7951002,137.352268 95.6329621,136.937955 96.3946548,136.410647 C97.308686,135.73268 95.7091314,134.075427 95.2902004,133.171471 C93.9953229,130.346607 93.4240535,127.25809 93.2336303,124.169573 C92.852784,118.105533 93.8048998,112.003828 92.6623608,105.977453 C90.9485523,96.749566 83.7505568,92.1167902 74.5721604,92.1167902 C68.8975501,92.1167902 63.2991091,94.0376972 60.1380846,98.934127 C56.6342984,104.3202 56.8247216,111.024542 57.0151448,117.163912 C57.1293987,120.666742 57.2817372,124.207238 56.786637,127.710068 C56.5581292,129.216662 56.2153675,130.685591 55.6821826,132.116855 C55.2632517,133.209135 53.1305122,135.921004 53.9683742,136.485977 C57.1293987,138.708203 62.4612472,139.4615 66.2697105,139.160181 C66.3839644,141.005758 66.7267261,143.378643 66.0412027,145.111226 C64.974833,147.823095 57.0151448,148.538727 54.6158129,149.329689 C47.9510022,151.51425 43,156.862658 43,164.395627 L63.8703786,164.395627 L73.2772829,164.395627 C73.7723831,164.395627 75.6766147,160.892796 76.2097996,160.327823 C78.7995546,157.50296 81.9605791,155.054745 85.388196,153.284498 Z M163.804454,157.917273 C158.663029,156.147026 153.102673,156.034031 147.961247,154.263783 C146.399777,153.736476 143.314922,153.096173 142.667483,151.325926 C142.058129,149.593343 142.058129,147.559441 141.943875,145.751529 C141.867706,144.320265 141.829621,142.889 141.829621,141.457736 C141.829621,140.516115 144.267038,138.519879 144.800223,137.653587 C146.856793,134.263751 147.047216,129.706305 147.428062,125.864491 C150.741425,126.768447 151.160356,120.704407 151.731626,118.85883 C152.150557,117.578225 154.702227,108.764651 150.741425,109.969926 C151.693541,108.312673 152.074388,106.278772 152.34098,104.433194 C153.102673,99.6120942 153.40735,94.339016 151.922049,89.6309104 C148.837194,79.8380509 139.35412,74.3389836 129.337862,74.0376648 C119.169265,73.6986812 108.962584,78.5197813 105.15412,88.274976 C103.326058,93.0207464 103.478396,98.1808301 104.087751,103.15259 C104.354343,105.41248 104.735189,107.936025 105.877728,109.969926 C102.183519,108.877646 104.16392,116.636604 104.582851,117.992538 C105.192205,119.913445 105.72539,126.806112 109.191091,125.864491 C109.495768,128.915343 109.83853,132.041525 110.676392,135.017048 C111.247661,137.013285 112.428285,138.708203 113.799332,140.252461 C114.484855,141.005758 114.827617,141.081088 114.789532,142.060374 C114.751448,144.998232 114.827617,148.162079 114.065924,151.024607 C113.304232,153.887135 106.944098,155.09241 104.392428,155.619718 C97.5371938,157.013317 91.2151448,157.653619 85.5024499,161.872082 C78.8376392,166.730847 75.3719376,174.301481 75.3719376,182.474752 L170.545434,182.474752 L181.247216,182.474752 C181.247216,171.363623 174.468151,161.570763 163.804454,157.917273 Z" id="Oval-3" fill="#F15A23" sketch:type="MSShapeGroup"></path>
            <g id="Group" sketch:type="MSLayerGroup" transform="translate(43.000000, 74.000000)"></g>
        </g>
    </g>
</svg>