<?xml version="1.0" encoding="UTF-8" standalone="no"?>
<svg width="256px" height="256px" viewBox="0 0 256 256" version="1.1" xmlns="http://www.w3.org/2000/svg" xmlns:xlink="http://www.w3.org/1999/xlink" xmlns:sketch="http://www.bohemiancoding.com/sketch/ns">
    <!-- Generator: Sketch 3.2.2 (9983) - http://www.bohemiancoding.com/sketch -->
    <title>why</title>
    <desc>Created with Sketch.</desc>
    <defs></defs>
    <g id="Page-1" stroke="none" stroke-width="1" fill="none" fill-rule="evenodd" sketch:type="MSPage">
        <g id="why" sketch:type="MSArtboardGroup" fill="#F15A23">
            <path d="M128,256 C198.692448,256 256,198.692448 256,128 C256,57.307552 198.692448,0 128,0 C57.307552,0 0,57.307552 0,128 C0,198.692448 57.307552,256 128,256 Z M130.646154,195.692308 C124.861538,195.692308 120.184615,191.076923 120.184615,185.292308 C120.184615,179.569231 124.861538,174.953846 130.646154,174.953846 C136.430769,174.953846 141.107692,179.569231 141.107692,185.292308 C141.107692,191.076923 136.430769,195.692308 130.646154,195.692308 Z M151.446154,124.738462 C137.415385,138.584615 137.784615,141.6 137.107692,157.538462 L125.415385,157.538462 C126.092308,140 130.030769,130.646154 143.938462,117.846154 C150.707692,111.507692 155.876923,103.876923 155.876923,94.4 C155.876923,79.8769231 143.938462,69.8461538 129.661538,69.8461538 C109.723077,69.8461538 99.8153846,79.9384615 100.184615,98.4 L88.6153846,98.4 C88.8,72.5538462 103.630769,60.1846154 130.215385,60.1846154 C150.523077,60.1846154 167.384615,72.7384615 167.384615,93.7846154 C167.384615,107.261538 160.8,116.061538 151.446154,124.738462 Z" id="Oval-2" sketch:type="MSShapeGroup"></path>
        </g>
    </g>
</svg>